<?xml version="1.0" encoding="UTF-8"?>
<svg width="22px" height="24px" viewBox="0 0 24 24" version="1.1" xmlns="http://www.w3.org/2000/svg" xmlns:xlink="http://www.w3.org/1999/xlink">
    <!-- Generator: Sketch 56.2 (81672) - https://sketch.com -->
    <title>messages-bubble-text-alternate@2x</title>
    <desc>Created with Sketch.</desc>
    <g id="Page-1" stroke="none" stroke-width="1" fill="none" fill-rule="evenodd">
        <g id="Artboard" transform="translate(-1120.000000, -352.000000)" fill="#58626D" fill-rule="nonzero">
            <g id="messages-bubble-text-alternate" transform="translate(1120.000000, 352.000000)">
                <path d="M12,0.874 C5.406,0.874 0.041,5.333 0.041,10.815 C0.071057124,13.3576939 1.17759862,15.7684644 3.086,17.449 L0.969,21.675 C0.778118152,22.0553871 0.848909707,22.5149128 1.14542439,22.8202148 C1.44193908,23.1255167 1.89920197,23.2096946 2.285,23.03 L8.242,20.256 C9.4666373,20.5901364 10.7305992,20.7583059 12,20.756 C18.594,20.756 23.959,16.297 23.959,10.815 C23.959,5.333 18.594,0.874 12,0.874 Z M12,18.756 C10.7983662,18.7592741 9.60293652,18.5836838 8.453,18.235 C8.21667574,18.1627478 7.96196814,18.1805596 7.738,18.285 L4.692,19.7 C4.59572546,19.7445906 4.48179107,19.723555 4.40778642,19.6475259 C4.33378178,19.5714969 4.31582798,19.4570364 4.363,19.362 L5.223,17.646 C5.43454415,17.2241784 5.32241419,16.711882 4.954,16.417 C3.17123039,15.099553 2.09627987,13.0330501 2.041,10.817 C2.041,6.438 6.509,2.876 12,2.876 C17.491,2.876 21.959,6.438 21.959,10.817 C21.959,15.196 17.491,18.756 12,18.756 Z" id="Shape"></path>
                <path d="M7.5,9.374 L14,9.374 C14.5522847,9.374 15,8.92628475 15,8.374 C15,7.82171525 14.5522847,7.374 14,7.374 L7.5,7.374 C6.94771525,7.374 6.5,7.82171525 6.5,8.374 C6.5,8.92628475 6.94771525,9.374 7.5,9.374 Z" id="Path"></path>
                <path d="M17,11.874 L7.5,11.874 C6.94771525,11.874 6.5,12.3217153 6.5,12.874 C6.5,13.4262847 6.94771525,13.874 7.5,13.874 L17,13.874 C17.5522847,13.874 18,13.4262847 18,12.874 C18,12.3217153 17.5522847,11.874 17,11.874 Z" id="Path"></path>
            </g>
        </g>
    </g>
</svg>