<?xml version="1.0" encoding="UTF-8"?>
<svg width="22px" height="24px" viewBox="0 0 26 24" version="1.1" xmlns="http://www.w3.org/2000/svg" xmlns:xlink="http://www.w3.org/1999/xlink">
    <!-- Generator: Sketch 56.2 (81672) - https://sketch.com -->
    <title>pencil-write-2-alternate@1x</title>
    <desc>Created with Sketch.</desc>
    <g id="Page-1" stroke="none" stroke-width="1" fill="none" fill-rule="evenodd">
        <g id="Artboard" transform="translate(-1036.000000, -352.000000)" fill="#58626D" fill-rule="nonzero">
            <g id="pencil-write-2-alternate" transform="translate(1036.000000, 352.000000)">
                <path d="M20,11.5 C19.4477153,11.5 19,11.9477153 19,12.5 L19,21 C19,21.5522847 18.5522847,22 18,22 L3,22 C2.44771525,22 2,21.5522847 2,21 L2,4 C2,3.44771525 2.44771525,3 3,3 L13,3 C13.5522847,3 14,2.55228475 14,2 C14,1.44771525 13.5522847,1 13,1 L3,1 C1.34314575,1 0,2.34314575 0,4 L0,21 C0,22.6568542 1.34314575,24 3,24 L18,24 C19.6568542,24 21,22.6568542 21,21 L21,12.5 C21,11.9477153 20.5522847,11.5 20,11.5 Z" id="Path"></path>
                <path d="M24.6786154,0.582 C23.8935884,-0.188977803 22.6356423,-0.188977803 21.8506154,0.582 L11.5636154,10.871 C11.5156055,10.9188932 11.4778398,10.9760521 11.4526154,11.039 L10.0356154,14.574 C9.96152218,14.7596999 10.0051779,14.9716858 10.1466154,15.113 C10.2888516,15.2526546 10.4995176,15.2964293 10.6856154,15.225 L14.2216154,13.81 C14.2843982,13.7844615 14.341498,13.7467349 14.3896154,13.699 L24.6786154,3.41 C25.4593792,2.6290003 25.4593792,1.3629997 24.6786154,0.582 Z" id="Path"></path>
            </g>
        </g>
    </g>
</svg>