<?xml version="1.0" encoding="UTF-8"?>
<svg width="24px" height="20px" viewBox="0 0 24 24" version="1.1" xmlns="http://www.w3.org/2000/svg" xmlns:xlink="http://www.w3.org/1999/xlink">
    <!-- Generator: Sketch 56.2 (81672) - https://sketch.com -->
    <title>logout</title>
    <desc>Created with Sketch.</desc>
    <g id="Page-1" stroke="none" stroke-width="1" fill="none" fill-rule="evenodd">
        <g id="logout" fill="#58626D" fill-rule="nonzero">
            <path d="M13.5,17.5 C12.9477153,17.5 12.5,17.9477153 12.5,18.5 L12.5,21 C12.5,21.2761424 12.2761424,21.5 12,21.5 L2.5,21.5 C2.22385763,21.5 2,21.2761424 2,21 L2,3 C2,2.72385763 2.22385763,2.5 2.5,2.5 L12,2.5 C12.2761424,2.5 12.5,2.72385763 12.5,3 L12.5,5.5 C12.5,6.05228475 12.9477153,6.5 13.5,6.5 C14.0522847,6.5 14.5,6.05228475 14.5,5.5 L14.5,2.5 C14.5,1.3954305 13.6045695,0.5 12.5,0.5 L2,0.5 C0.8954305,0.5 0,1.3954305 0,2.5 L0,21.5 C0,22.6045695 0.8954305,23.5 2,23.5 L12.5,23.5 C13.6045695,23.5 14.5,22.6045695 14.5,21.5 L14.5,18.5 C14.5,17.9477153 14.0522847,17.5 13.5,17.5 Z" id="Path"></path>
            <path d="M23.555,11.669 L17.555,7.669 C17.2482906,7.46436717 16.853861,7.44510925 16.5286756,7.61888998 C16.2034902,7.79267071 16.0003134,8.13129258 16,8.5 L16,11 L6.99999996,11 C6.4641016,11 5.96891106,11.2858984 5.70096186,11.75 C5.43301265,12.2141016 5.43301265,12.7858984 5.70096186,13.25 C5.96891106,13.7141016 6.4641016,14 6.99999996,14 L16,14 L16,16.5 C16.0075308,17.0491351 16.4508649,17.4924692 17,17.5 C17.1975323,17.5 17.3906531,17.4415861 17.555,17.332 L23.555,13.332 C23.8331551,13.1465268 24.0002244,12.8343211 24.0002244,12.5 C24.0002244,12.1656789 23.8331551,11.8534732 23.555,11.668 L23.555,11.669 Z" id="Path"></path>
        </g>
    </g>
</svg>