<?xml version="1.0" encoding="UTF-8"?>
<svg width="28px" height="28px" viewBox="0 0 28 28" version="1.1" xmlns="http://www.w3.org/2000/svg" xmlns:xlink="http://www.w3.org/1999/xlink">
    <!-- Generator: Sketch 56.2 (81672) - https://sketch.com -->
    <title>Group 4@2x</title>
    <desc>Created with Sketch.</desc>
    <g id="Page-1" stroke="none" stroke-width="1" fill="none" fill-rule="evenodd">
        <g id="app-copy" transform="translate(-17.000000, -18.000000)">
            <g id="Group-4" transform="translate(17.000000, 18.000000)">
                <ellipse id="Oval" fill="#8FC3C5" cx="14.5" cy="15" rx="12.5" ry="12"></ellipse>
                <g id="earth-1">
                    <path d="M11.9331919,2.74684884 C15.0653405,2.98909341 17.5839744,3.35642954 19.4890935,3.84885723 C21.3942127,4.34128493 22.7743876,4.88749424 23.6296183,5.48748518 C24.9395606,7.88584071 25.7296879,9.70256672 26,10.9376632 C26.2703121,12.1727597 26.2703121,13.9662431 26,16.3181135 C25.1626688,19.4864753 23.8927203,20.7267843 22.1901545,20.0390407 C20.4875888,19.351297 18.3018937,17.7481632 15.6330694,15.2296392 L11.9331919,2.74684884 Z" id="Rectangle" fill="#8FC3C5"></path>
                    <path d="M28,14 C28,6.2680135 21.7319865,0 14,0 C6.2680135,0 0,6.2680135 0,14 C0,21.7319865 6.2680135,28 14,28 C14.0245,28 14.0478333,28 14.0723333,28 C14.0968333,28 14.1213333,28 14.1458333,28 C21.7938133,27.9916412 27.9916412,21.7938133 28,14.1458333 C28,14.1213333 28,14.0968333 28,14.0723333 C28,14.0478333 28,14.0245 28,14 Z M25.6666667,14 C25.6662799,15.0381508 25.5253901,16.0714736 25.2478333,17.0718333 C25.2029832,17.2347368 25.0897019,17.3701902 24.9372995,17.4431464 C24.7848972,17.5161026 24.6083484,17.5193931 24.4533333,17.4521667 C23.7329124,17.1403088 23.1182121,16.6265053 22.6835,15.9728333 L20.0958333,12.0901667 C19.5548536,11.2789079 18.6442563,10.7916508 17.6691667,10.7916667 L17.164,10.7916667 C15.3920864,10.7916667 13.9556667,9.35524691 13.9556667,7.58333333 C13.9556667,5.81141976 15.3920864,4.375 17.164,4.375 L20.398,4.375 C20.518791,4.375 20.6366012,4.41250989 20.7351667,4.48233333 C23.8265151,6.66628019 25.6652663,10.2150222 25.6666667,14 Z M2.54216667,11.8475 C2.59770176,11.5754313 2.83732183,11.3802214 3.115,11.3808173 L8.17483333,11.3808173 C9.25841918,11.3777844 10.2981837,11.8083939 11.0623333,12.5766667 L12.3666667,13.8833333 C13.8949845,15.4124292 13.9665983,17.8677607 12.53,19.4833333 L10.9445,21.2671667 C10.4698333,21.8014752 10.2078684,22.4914683 10.2083333,23.2061667 L10.2083333,24.171 C10.208232,24.3677153 10.1089908,24.5511305 9.94437916,24.6588335 C9.77976753,24.7665366 9.57195927,24.7840195 9.39166667,24.7053333 C5.11297269,22.8656513 2.33836974,18.6574271 2.33333333,14 C2.33453238,13.2775012 2.40445846,12.5567548 2.54216667,11.8475 Z" id="Shape" fill="#028388" fill-rule="nonzero"></path>
                </g>
            </g>
        </g>
    </g>
</svg>