<?xml version="1.0" encoding="UTF-8"?>
<svg width="196px" height="28px" viewBox="0 0 196 28" version="1.1" xmlns="http://www.w3.org/2000/svg" xmlns:xlink="http://www.w3.org/1999/xlink">
    <!-- Generator: Sketch 56.2 (81672) - https://sketch.com -->
    <title>Group 3@2x</title>
    <desc>Created with Sketch.</desc>
    <g id="Page-1" stroke="none" stroke-width="1" fill="none" fill-rule="evenodd">
        <g id="Artboard" transform="translate(-802.000000, -120.000000)" fill="#008489">
            <g id="Group-3" transform="translate(802.000000, 120.000000)">
                <text id="Vacation-Planner" font-family="AirbnbCerealApp-Black, Airbnb Cereal App" font-size="18.6666667" font-weight="700">
                    <tspan x="39.6666667" y="22.5">Vacation Planner</tspan>
                </text>
                <g id="calendar-plane" fill-rule="nonzero">
                    <path d="M25.0833333,3.5 L21.875,3.5 C21.7139169,3.5 21.5833333,3.36941639 21.5833333,3.20833333 L21.5833333,1.16666667 C21.5833333,0.522334459 21.0609989,0 20.4166667,0 C19.7723345,0 19.25,0.522334459 19.25,1.16666667 L19.25,6.70833333 C19.25,7.19158249 18.8582492,7.58333333 18.375,7.58333333 C17.8917508,7.58333333 17.5,7.19158249 17.5,6.70833333 L17.5,4.08333333 C17.5,3.76116723 17.2388328,3.5 16.9166667,3.5 L9.625,3.5 C9.46437146,3.5 9.33397585,3.37012725 9.33333333,3.2095 L9.33333333,1.16666667 C9.33333333,0.522334459 8.81099887,0 8.16666667,0 C7.52233446,0 7,0.522334459 7,1.16666667 L7,6.70833333 C7,7.19158249 6.60824916,7.58333333 6.125,7.58333333 C5.64175084,7.58333333 5.25,7.19158249 5.25,6.70833333 L5.25,4.08333333 C5.25,3.76116723 4.98883277,3.5 4.66666667,3.5 L2.91666667,3.5 C1.62800225,3.5 0.583333333,4.54466892 0.583333333,5.83333333 L0.583333333,25.6666667 C0.583333333,26.9553311 1.62800225,28 2.91666667,28 L25.0833333,28 C26.3719977,28 27.4166667,26.9553311 27.4166667,25.6666667 L27.4166667,5.83333333 C27.4166667,4.54466892 26.3719977,3.5 25.0833333,3.5 Z M25.0833333,25.0833333 C25.0833333,25.4054994 24.8221661,25.6666667 24.5,25.6666667 L3.5,25.6666667 C3.1778339,25.6666667 2.91666667,25.4054994 2.91666667,25.0833333 L2.91666667,11.0833333 C2.91666667,10.7611672 3.1778339,10.5 3.5,10.5 L24.5,10.5 C24.8221661,10.5 25.0833333,10.7611672 25.0833333,11.0833333 L25.0833333,25.0833333 Z" id="Shape"></path>
                    <path d="M17.9666667,14.4421667 L15.6216667,16.0428333 L10.2981667,14.0595 C9.9960446,13.9456717 9.65678642,13.9931327 9.3975,14.1855 C9.3975,14.1855 8.274,15.0371667 8.24716667,15.0698333 C8.07744366,15.2761502 8.00037882,15.5433591 8.03416773,15.8083701 C8.06795663,16.0733811 8.20960429,16.3127041 8.42566667,16.4698333 L11.7646667,18.5348333 L10.255,19.6536667 L8.792,18.7926667 C8.49958487,18.6914697 8.17557584,18.7498179 7.93683333,18.9466667 C7.93683333,18.9466667 6.84716667,19.8695 6.81683333,19.9068333 C6.66942323,20.0952382 6.60393255,20.3349893 6.63508878,20.5721716 C6.66624501,20.8093539 6.79143278,21.0240574 6.9825,21.168 L10.1966667,23.4243333 C10.5639878,23.6839928 11.0510178,23.6986956 11.4333333,23.4616667 L20.2171667,18.0075 C20.8941414,17.6240422 21.3052396,16.899223 21.2869088,16.1214064 C21.268578,15.3435897 20.8237917,14.6389412 20.1295047,14.2877998 C19.4352176,13.9366585 18.6040466,13.9959811 17.9666667,14.4421667 Z" id="Path"></path>
                </g>
            </g>
        </g>
    </g>
</svg>